# xmcd CD database file generated by MAGIX-FreeDB-MP3_Maker_12 v2.0beta1
# 
# Track frame offsets:
#      150
#      11590
#      26647
#      41967
#      65660
#      80524
#      133831
#      146746
#      161195
#      175466
#      189686
#      201982
#      215050
#      232769
#      246673
#      258044
#      272730
#      291400
#      307022
#      320860
# 
# Disc length: 4449 seconds
# 
# Revision: 1 
# Processed by: cddbd v1.5.2PL0 Copyright (c) Steve Scherf et al.
# Submitted via: MAGIX-FreeDB-MP3_Maker_12 v2.0beta1
# 
DISCID=49115f14
DTITLE=Woody Herman and His Orchertra - Rhapsody in wood
DYEAR=1900
DGENRE=Jazz
TTITLE0=Woody Herman and His Orchertra - The Good Earth (Hefeti)
TTITLE1=Woody Herman and His Orchertra - Laura (Raksin - Mercer)
TTITLE2=Woody Herman and His Orchertra - Your Tather's Moustache (Harris - Herman)
TTITLE3=Woody Herman and His Orchertra - Lady McGowan's Dream (Parts I and II) (Burns)
TTITLE4=Woody Herman and His Orchertra - Apple Honey (Herman)
TTITLE5=Woody Herman and His Orchertra - Sumer Sequence (parts I - IV) (Burns)
TTITLE6=Woody Herman and His Orchertra - Not Really the Blues (Mandel)
TTITLE7=Woody Herman and His Orchertra - More Moon ( Rogers)
TTITLE8=Woody Herman and His Orchertra - Rhapsody in Wood (Burns)
TTITLE9=Woody Herman and His Orchertra - As Long As I Live (H. Arlon - T. Koehler)
TTITLE10=Woody Herman and His Orchertra - I Left My Hat in Hiti (B. Lane - J. Lerner)
TTITLE11=Woody Herman and His Orchertra - Here Comes The Blues (W. Harris)
TTITLE12=Woody Herman and His Orchertra - Life is Just a Bowl of Cherrys (K. Henderson - L. Brown)
TTITLE13=Woody Herman and His Orchertra - Cohn's Alley (Cohn)
TTITLE14=Woody Herman and His Orchertra - Mulliganrawny (Pierce)
TTITLE15=Woody Herman and His Orchertra - Whi Not? (Hefti)
TTITLE16=Woody Herman and His Orchertra - Would He? (Alban)
TTITLE17=Woody Herman and His Orchertra - Off Shore (Diamond)
TTITLE18=Woody Herman and His Orchertra - Hitting the Bottle (Pierce)
TTITLE19=Woody Herman and His Orchertra - It Happens To Me (Kent - Gallop
EXTD=
EXTT0=
EXTT1=
EXTT2=
EXTT3=
EXTT4=
EXTT5=
EXTT6=
EXTT7=
EXTT8=
EXTT9=
EXTT10=
EXTT11=
EXTT12=
EXTT13=
EXTT14=
EXTT15=
EXTT16=
EXTT17=
EXTT18=
EXTT19=
PLAYORDER=
